<?xml version="1.0" encoding="UTF-8" standalone="no"?>
<!-- Created with Inkscape (http://www.inkscape.org/) -->

<svg
   xmlns:dc="http://purl.org/dc/elements/1.1/"
   xmlns:cc="http://creativecommons.org/ns#"
   xmlns:rdf="http://www.w3.org/1999/02/22-rdf-syntax-ns#"
   xmlns:svg="http://www.w3.org/2000/svg"
   xmlns="http://www.w3.org/2000/svg"
   xmlns:sodipodi="http://sodipodi.sourceforge.net/DTD/sodipodi-0.dtd"
   xmlns:inkscape="http://www.inkscape.org/namespaces/inkscape"
   width="210mm"
   height="353mm"
   viewBox="0 0 744.09449 1250.787"
   id="svg2"
   version="1.1"
   inkscape:version="0.91 r13725"
   sodipodi:docname="katukas.svg"
   inkscape:export-filename="/home/nightshade/src/personal/katukas/katukas.png"
   inkscape:export-xdpi="60.48"
   inkscape:export-ydpi="60.48">
  <defs
     id="defs4" />
  <sodipodi:namedview
     id="base"
     pagecolor="#ebebeb"
     bordercolor="#666666"
     borderopacity="1.0"
     inkscape:pageopacity="1"
     inkscape:pageshadow="2"
     inkscape:zoom="2.8"
     inkscape:cx="88.071788"
     inkscape:cy="488.62099"
     inkscape:document-units="px"
     inkscape:current-layer="layer1"
     showgrid="false"
     showguides="true"
     inkscape:guide-bbox="true"
     inkscape:window-width="1920"
     inkscape:window-height="1009"
     inkscape:window-x="0"
     inkscape:window-y="34"
     inkscape:window-maximized="1" />
  <metadata
     id="metadata7">
    <rdf:RDF>
      <cc:Work
         rdf:about="">
        <dc:format>image/svg+xml</dc:format>
        <dc:type
           rdf:resource="http://purl.org/dc/dcmitype/StillImage" />
        <dc:title></dc:title>
      </cc:Work>
    </rdf:RDF>
  </metadata>
  <g
     inkscape:label="Sluoksnis 1"
     inkscape:groupmode="layer"
     id="layer1"
     transform="translate(0,198.42527)">
    <path
       sodipodi:nodetypes="cccccccccccccccccccc"
       inkscape:connector-curvature="0"
       id="path4175"
       d="M -1.4285714,229.50506 C 120,172.3622 234.28571,150.93364 234.28571,150.93364 l 148.57143,-254.28572 142.85715,264.28571 c 0,0 135.71428,20 225.71428,68.57143 l -5.93599,306.42827 -107.07617,104.28633 -51.6911,-47.75201 -79.62873,94.21903 -63.4663,-71.99567 -53.7114,86.1378 -57.54896,-82.68893 -69.73026,78.64832 -49.18058,-86.56916 -45.77376,46.16306 -64.82818,-77.59163 -56.390123,39.20584 -42.4264068,-82.06298 -3.92857143,0 z"
       style="fill:#c1c1c1;fill-opacity:1;fill-rule:evenodd;stroke:none;stroke-width:12.19999981;stroke-linecap:butt;stroke-linejoin:miter;stroke-miterlimit:4;stroke-dasharray:none;stroke-opacity:1"
       inkscape:export-xdpi="60.48"
       inkscape:export-ydpi="60.48" />
    <path
       style="fill:none;fill-rule:evenodd;stroke:#000000;stroke-width:12.19999981;stroke-linecap:butt;stroke-linejoin:miter;stroke-miterlimit:4;stroke-dasharray:none;stroke-opacity:1"
       d="m -0.23853329,584.86815 c 0,0 -35.17155971,333.12627 377.02543329,330.11331 412.19699,-3.01296 366.60728,-329.83617 366.60728,-329.83617"
       id="path4166"
       inkscape:connector-curvature="0"
       sodipodi:nodetypes="czc" />
    <g
       id="g4168"
       transform="translate(0,61.428571)">
      <path
         d="m 388.86703,349.63941 a 168.57143,111.42857 0 0 1 2.92794,-0.0783"
         sodipodi:open="true"
         sodipodi:end="4.6806589"
         sodipodi:start="4.6632754"
         sodipodi:ry="111.42857"
         sodipodi:rx="168.57143"
         sodipodi:cy="460.93362"
         sodipodi:cx="397.14285"
         sodipodi:type="arc"
         id="path4148"
         style="opacity:1;fill:#000000;fill-opacity:1;stroke:#000000" />
      <path
         inkscape:connector-curvature="0"
         id="path4156"
         d="m 244.20032,370.44207 c 0,0 44.73543,-101.56153 132.99722,-99.1434 88.26181,2.41813 125.74284,99.1434 125.74284,99.1434 0,0 -37.48103,83.42554 -125.74284,83.42554 -88.26179,0 -132.99722,-83.42554 -132.99722,-83.42554 z"
         style="fill:#abdfff;fill-rule:evenodd;stroke:#000000;stroke-width:12.19999981;stroke-linecap:butt;stroke-linejoin:miter;stroke-miterlimit:4;stroke-dasharray:none;stroke-opacity:1;fill-opacity:1" />
      <path
         style="fill:#000000;fill-opacity:1;fill-rule:evenodd;stroke:#000000;stroke-width:0.51817584px;stroke-linecap:butt;stroke-linejoin:miter;stroke-opacity:1"
         d="m 370.3359,271.80441 c 0,0 54.898,28.83876 55.35022,91.02235 0.45223,62.1836 -50.25426,91.08451 -50.25426,91.08451 0,0 -45.10924,-24.20565 -46.84758,-86.32623 -1.73835,-62.12055 41.75162,-95.78063 41.75162,-95.78063 z"
         id="path4158"
         inkscape:connector-curvature="0" />
    </g>
    <path
       style="fill:#ff9595;fill-opacity:1;fill-rule:evenodd;stroke:none;stroke-width:1px;stroke-linecap:butt;stroke-linejoin:miter;stroke-opacity:1"
       d="m -2.8273509e-8,596.06761 c 0,0 67.827142028273499,-64.51654 67.827142028273499,-80.01989 0,-15.50333 -67.18116909,-28.42279 -67.18116909,-28.42279 z"
       id="path4160"
       inkscape:connector-curvature="0"
       sodipodi:nodetypes="cscc" />
    <path
       style="fill:none;fill-rule:evenodd;stroke:#515151;stroke-width:12.19999981;stroke-linecap:butt;stroke-linejoin:miter;stroke-miterlimit:4;stroke-dasharray:none;stroke-opacity:1"
       d="M -1.4285714,229.50506 C 120,172.3622 234.28571,150.93364 234.28571,150.93364 l 148.57143,-254.28572 142.85715,264.28571 c 0,0 135.71428,20 225.71428,68.57143"
       id="path4173"
       inkscape:connector-curvature="0"
       sodipodi:nodetypes="ccccc" />
    <path
       sodipodi:nodetypes="cscc"
       inkscape:connector-curvature="0"
       id="path4177"
       d="m 746.20686,596.06761 c 0,0 -67.82714,-64.51654 -67.82714,-80.01989 0,-15.50333 67.18117,-28.42279 67.18117,-28.42279 z"
       style="fill:#ff9595;fill-opacity:1;fill-rule:evenodd;stroke:none;stroke-width:1px;stroke-linecap:butt;stroke-linejoin:miter;stroke-opacity:1" />
    <path
       style="fill:#515151;fill-rule:evenodd;stroke:none;stroke-width:1px;stroke-linecap:butt;stroke-linejoin:miter;stroke-opacity:1;fill-opacity:1"
       d="M 278.57143,148.07619 381.42857,3.79047 467.14286,148.07619 Z"
       id="path4179"
       inkscape:connector-curvature="0" />
  </g>
</svg>
