<?xml version="1.0" encoding="UTF-8" standalone="no"?>
<!-- Created with Inkscape (http://www.inkscape.org/) -->

<svg
   xmlns:dc="http://purl.org/dc/elements/1.1/"
   xmlns:cc="http://creativecommons.org/ns#"
   xmlns:rdf="http://www.w3.org/1999/02/22-rdf-syntax-ns#"
   xmlns:svg="http://www.w3.org/2000/svg"
   xmlns="http://www.w3.org/2000/svg"
   xmlns:sodipodi="http://sodipodi.sourceforge.net/DTD/sodipodi-0.dtd"
   xmlns:inkscape="http://www.inkscape.org/namespaces/inkscape"
   width="210mm"
   height="353mm"
   viewBox="0 0 744.09449 1250.787"
   id="svg2"
   version="1.1"
   inkscape:version="0.91 r13725"
   sodipodi:docname="mono.svg"
   inkscape:export-filename="/home/nightshade/src/personal/katukas/katukas.png"
   inkscape:export-xdpi="60.48"
   inkscape:export-ydpi="60.48">
  <defs
     id="defs4" />
  <sodipodi:namedview
     id="base"
     pagecolor="#ffffff"
     bordercolor="#666666"
     borderopacity="1.0"
     inkscape:pageopacity="1"
     inkscape:pageshadow="2"
     inkscape:zoom="3.959798"
     inkscape:cx="81.597047"
     inkscape:cy="564.02555"
     inkscape:document-units="px"
     inkscape:current-layer="g4143"
     showgrid="false"
     showguides="true"
     inkscape:guide-bbox="true"
     inkscape:window-width="1920"
     inkscape:window-height="1009"
     inkscape:window-x="0"
     inkscape:window-y="34"
     inkscape:window-maximized="1" />
  <metadata
     id="metadata7">
    <rdf:RDF>
      <cc:Work
         rdf:about="">
        <dc:format>image/svg+xml</dc:format>
        <dc:type
           rdf:resource="http://purl.org/dc/dcmitype/StillImage" />
        <dc:title />
      </cc:Work>
    </rdf:RDF>
  </metadata>
  <g
     inkscape:label="Sluoksnis 1"
     inkscape:groupmode="layer"
     id="layer1"
     transform="translate(0,198.42527)">
    <g
       id="g4168"
       transform="matrix(1.2903748,0,0,1.2903748,-108.45049,-43.850178)">
      <path
         d="m 388.86703,349.63941 a 168.57143,111.42857 0 0 1 2.92794,-0.0783"
         sodipodi:open="true"
         sodipodi:end="4.6806589"
         sodipodi:start="4.6632754"
         sodipodi:ry="111.42857"
         sodipodi:rx="168.57143"
         sodipodi:cy="460.93362"
         sodipodi:cx="397.14285"
         sodipodi:type="arc"
         id="path4148"
         style="opacity:1;fill:#000000;fill-opacity:1;stroke:#000000" />
      <path
         inkscape:connector-curvature="0"
         id="path4156"
         d="m 244.20032,370.44207 c 0,0 44.73543,-101.56153 132.99722,-99.1434 88.26181,2.41813 125.74284,99.1434 125.74284,99.1434 0,0 -37.48103,83.42554 -125.74284,83.42554 -88.26179,0 -132.99722,-83.42554 -132.99722,-83.42554 z"
         style="fill:none;fill-opacity:1;fill-rule:evenodd;stroke:#000000;stroke-width:12.19999981;stroke-linecap:butt;stroke-linejoin:miter;stroke-miterlimit:4;stroke-dasharray:none;stroke-opacity:1" />
      <path
         style="fill:#000000;fill-opacity:1;fill-rule:evenodd;stroke:none;stroke-width:0.51817584px;stroke-linecap:butt;stroke-linejoin:miter;stroke-opacity:1"
         d="m 370.3359,271.80441 c 0,0 54.898,28.83876 55.35022,91.02235 0.45223,62.1836 -50.25426,91.08451 -50.25426,91.08451 0,0 -45.10924,-24.20565 -46.84758,-86.32623 -1.73835,-62.12055 41.75162,-95.78063 41.75162,-95.78063 z"
         id="path4158"
         inkscape:connector-curvature="0" />
    </g>
    <path
       style="fill:none;fill-rule:evenodd;stroke:#000000;stroke-width:16;stroke-linecap:butt;stroke-linejoin:miter;stroke-miterlimit:4;stroke-dasharray:none;stroke-opacity:1"
       d="M -1.4285714,229.50506 C 120,172.3622 187.81869,154.97425 187.81869,154.97425 l 188.97753,-288.63091 181.24295,294.59029 c 0,0 103.3894,20 193.3894,68.57143"
       id="path4173"
       inkscape:connector-curvature="0"
       sodipodi:nodetypes="ccccc" />
    <g
       id="g4143">
      <path
         sodipodi:nodetypes="czc"
         inkscape:connector-curvature="0"
         id="path4166"
         d="m 0.20643786,584.51039 c 0,0 -35.12951086,385.71192 376.57468214,382.22335 C 788.48531,963.24517 742.9501,584.83128 742.9501,584.83128"
         style="fill:none;fill-rule:evenodd;stroke:#000000;stroke-width:17.20629311;stroke-linecap:butt;stroke-linejoin:miter;stroke-miterlimit:4;stroke-dasharray:none;stroke-opacity:1" />
      <path
         sodipodi:nodetypes="cscc"
         inkscape:connector-curvature="0"
         id="path4160"
         d="m -2.8273509e-8,636.47371 c 0,0 93.099760028273507,-88.55561 93.099760028273507,-109.83556 0,-21.27993 -93.72832424,-39.01322 -93.72832424,-39.01322 z"
         style="fill:#000000;fill-opacity:1;fill-rule:evenodd;stroke:none;stroke-width:1px;stroke-linecap:butt;stroke-linejoin:miter;stroke-opacity:1" />
      <path
         style="fill:#000000;fill-opacity:1;fill-rule:evenodd;stroke:none;stroke-width:1px;stroke-linecap:butt;stroke-linejoin:miter;stroke-opacity:1"
         d="m 745.82403,636.47371 c 0,0 -93.09976,-88.55561 -93.09976,-109.83556 0,-21.27993 92.2131,-39.01322 92.2131,-39.01322 z"
         id="path4149"
         inkscape:connector-curvature="0"
         sodipodi:nodetypes="cscc" />
    </g>
    <path
       style="fill:#000000;fill-opacity:1;fill-rule:evenodd;stroke:none;stroke-width:1px;stroke-linecap:butt;stroke-linejoin:miter;stroke-opacity:1"
       d="M 264.42929,152.1168 377.38796,-22.473496 467.14286,154.13711 Z"
       id="path4179"
       inkscape:connector-curvature="0"
       sodipodi:nodetypes="cccc" />
  </g>
</svg>
